<svg width="32" height="33" viewBox="0 0 32 33" fill="none" xmlns="http://www.w3.org/2000/svg">
<path d="M15.999 9.70058C15.1894 9.70058 14.3877 9.86004 13.6398 10.1699C12.8918 10.4797 12.2122 10.9338 11.6397 11.5063C11.0672 12.0787 10.6131 12.7584 10.3033 13.5063C9.99348 14.2543 9.83401 15.056 9.83401 15.8656C9.83401 16.6752 9.99348 17.4769 10.3033 18.2248C10.6131 18.9728 11.0672 19.6524 11.6397 20.2249C12.2122 20.7974 12.8918 21.2515 13.6398 21.5613C14.3877 21.8711 15.1894 22.0306 15.999 22.0306C17.6341 22.0306 19.2022 21.3811 20.3583 20.2249C21.5145 19.0687 22.164 17.5006 22.164 15.8656C22.164 14.2305 21.5145 12.6624 20.3583 11.5063C19.2022 10.3501 17.6341 9.70058 15.999 9.70058ZM15.999 19.8706C14.9367 19.8706 13.9179 19.4486 13.1667 18.6974C12.4155 17.9462 11.9935 16.9274 11.9935 15.8651C11.9935 14.8028 12.4155 13.7839 13.1667 13.0328C13.9179 12.2816 14.9367 11.8596 15.999 11.8596C17.0612 11.8596 18.0799 12.2815 18.831 13.0326C19.5821 13.7837 20.004 14.8024 20.004 15.8646C20.004 16.9268 19.5821 17.9455 18.831 18.6965C18.0799 19.4476 17.0612 19.8696 15.999 19.8696V19.8706ZM23.845 9.47358C23.845 9.66229 23.8078 9.84915 23.7356 10.0235C23.6634 10.1978 23.5576 10.3563 23.4241 10.4897C23.2907 10.6231 23.1323 10.729 22.9579 10.8012C22.7836 10.8734 22.5967 10.9106 22.408 10.9106C22.2193 10.9106 22.0324 10.8734 21.8581 10.8012C21.6838 10.729 21.5253 10.6231 21.3919 10.4897C21.2585 10.3563 21.1526 10.1978 21.0804 10.0235C21.0082 9.84915 20.971 9.66229 20.971 9.47358C20.971 9.09247 21.1224 8.72696 21.3919 8.45747C21.6614 8.18798 22.0269 8.03658 22.408 8.03658C22.7891 8.03658 23.1546 8.18798 23.4241 8.45747C23.6936 8.72696 23.845 9.09247 23.845 9.47358ZM27.377 8.01258C27.0694 7.22325 26.6027 6.50565 26.0059 5.90439C25.4091 5.30313 24.695 4.83108 23.908 4.51758L23.867 4.50358C22.9378 4.1509 21.9547 3.96145 20.961 3.94358H20.952C19.668 3.88758 19.262 3.87158 16.005 3.87158C12.748 3.87158 12.332 3.87158 11.059 3.94358C10.0421 3.96215 9.03629 4.15844 8.08701 4.52358L8.14701 4.50358C7.35732 4.81042 6.63929 5.27661 6.03764 5.87309C5.436 6.46957 4.96365 7.18356 4.65001 7.97058L4.63501 8.01258C4.28249 8.94173 4.0937 9.92495 4.07701 10.9186V10.9276C4.01901 12.2096 4.00201 12.6166 4.00201 15.8736C4.00201 19.1296 4.00201 19.5446 4.07601 20.8206C4.09601 21.8176 4.28401 22.8016 4.63501 23.7366C4.9431 24.5258 5.41009 25.2433 6.00701 25.8445C6.60393 26.4457 7.31803 26.9178 8.10501 27.2316L8.14701 27.2456C9.00701 27.5936 10.003 27.8106 11.046 27.8456H11.06C12.344 27.9016 12.751 27.9196 16.007 27.9196C19.263 27.9196 19.68 27.9196 20.954 27.8456C21.9717 27.826 22.9783 27.6301 23.929 27.2666L23.869 27.2866C24.6579 26.9785 25.3752 26.5118 25.9763 25.9152C26.5775 25.3187 27.0498 24.6051 27.364 23.8186L27.379 23.7766C27.7294 22.8437 27.9185 21.8579 27.938 20.8616C27.995 19.5796 28.012 19.1726 28.012 15.9156C28.012 12.6586 28.012 12.2446 27.938 10.9686C27.9232 9.93681 27.7262 8.91578 27.356 7.95258L27.376 8.01258H27.377ZM25.753 20.7226C25.745 21.5072 25.5995 22.2843 25.323 23.0186L25.339 22.9726C25.1394 23.4861 24.836 23.9528 24.4479 24.3438C24.0597 24.7347 23.5951 25.0414 23.083 25.2446L23.056 25.2546C22.3451 25.521 21.5931 25.6611 20.834 25.6686H20.829C19.563 25.7276 19.205 25.7416 15.957 25.7416C12.707 25.7416 12.375 25.7416 11.084 25.6686C10.308 25.6598 9.53951 25.5143 8.81401 25.2386L8.85901 25.2536C8.34361 25.0556 7.87472 24.7532 7.48183 24.3653C7.08894 23.9774 6.78054 23.5124 6.57601 22.9996L6.56601 22.9726C6.30215 22.2617 6.16212 21.5108 6.15201 20.7526V20.7476C6.09501 19.4806 6.08201 19.1236 6.08201 15.8756C6.08201 12.6256 6.08201 12.2936 6.15201 11.0016C6.16201 10.1916 6.31201 9.42058 6.58201 8.70658L6.56701 8.75258C6.76804 8.23285 7.07592 7.7611 7.47073 7.36784C7.86554 6.97458 8.3385 6.66856 8.85901 6.46958C9.56944 6.204 10.3206 6.06391 11.079 6.05558H11.084C12.352 5.99758 12.708 5.98158 15.957 5.98158C19.206 5.98158 19.54 5.98158 20.829 6.05558C21.6058 6.0641 22.3749 6.20966 23.101 6.48558L23.056 6.46958C23.5695 6.66933 24.0364 6.97274 24.4274 7.36089C24.8185 7.74903 25.1254 8.21359 25.329 8.72558L25.339 8.75258C25.589 9.41258 25.739 10.1756 25.753 10.9726V10.9776C25.811 12.2456 25.825 12.6016 25.825 15.8516C25.825 19.0996 25.825 19.4486 25.768 20.7236H25.753V20.7226Z" fill="white"/>
</svg>
