<svg width="32" height="33" viewBox="0 0 32 33" fill="none" xmlns="http://www.w3.org/2000/svg">
<path d="M9.56099 6.54346C9.56099 6.92653 9.48554 7.30585 9.33895 7.65975C9.19235 8.01366 8.97749 8.33523 8.70662 8.6061C8.43575 8.87696 8.11418 9.09183 7.76028 9.23842C7.40637 9.38502 7.02706 9.46046 6.64399 9.46046C6.26092 9.46046 5.88161 9.38502 5.5277 9.23842C5.1738 9.09183 4.85223 8.87696 4.58136 8.6061C4.31049 8.33523 4.09563 8.01366 3.94903 7.65975C3.80244 7.30585 3.72699 6.92653 3.72699 6.54346C3.72699 5.76983 4.03432 5.02788 4.58136 4.48083C5.1284 3.93379 5.87035 3.62646 6.64399 3.62646C7.41763 3.62646 8.15958 3.93379 8.70662 4.48083C9.25366 5.02788 9.56099 5.76983 9.56099 6.54346ZM12.316 11.6715V27.8565H17.341V19.8525C17.341 17.7405 17.739 15.6955 20.357 15.6955C22.94 15.6955 22.972 18.1095 22.972 19.9855V27.8575H28V18.9815C28 14.6215 27.061 11.2715 21.965 11.2715C19.519 11.2715 17.879 12.6135 17.208 13.8845H17.14V11.6715H12.316ZM4.12599 11.6715H9.15999V27.8565H4.12699L4.12599 11.6715Z" fill="white"/>
</svg>
