<svg width="32" height="33" viewBox="0 0 32 33" fill="none" xmlns="http://www.w3.org/2000/svg">
<path d="M26.177 10.5276C26.195 10.7606 26.195 10.9926 26.195 11.2246C26.195 18.3246 20.791 26.5056 10.915 26.5056C7.87199 26.5056 5.04499 25.6246 2.66699 24.0936C3.10629 24.142 3.54806 24.1644 3.98999 24.1606C6.50699 24.1606 8.82199 23.2966 10.655 21.8486L10.632 21.8656C9.51791 21.8452 8.43761 21.4797 7.53996 20.8195C6.64231 20.1593 5.9715 19.237 5.61999 18.1796L5.60999 18.1416C5.94099 18.1916 6.27499 18.2246 6.62399 18.2246C7.10499 18.2246 7.58899 18.1576 8.03899 18.0416C5.56499 17.5296 3.73199 15.3676 3.73199 12.7786V12.7046C4.47623 13.1192 5.30771 13.3525 6.15899 13.3856C5.42271 12.8962 4.81879 12.2324 4.40095 11.4532C3.98312 10.6741 3.76431 9.80375 3.76399 8.91963V8.91363C3.76399 7.91663 4.02899 7.00163 4.49399 6.20463C7.15699 9.46063 11.094 11.5896 15.532 11.8226L15.569 11.8246C15.4831 11.4202 15.4385 11.0081 15.436 10.5946V10.5916C15.436 9.16795 16.0015 7.80258 17.0082 6.79588C18.0149 5.78919 19.3803 5.22363 20.804 5.22363H20.807C22.353 5.22363 23.749 5.87163 24.731 6.91963C25.9514 6.68443 27.1209 6.23626 28.186 5.59563L28.139 5.62163C27.7385 6.85294 26.9082 7.899 25.8 8.56863L25.776 8.58163C26.867 8.45846 27.9327 8.16877 28.936 7.72263L28.868 7.74963C28.1397 8.809 27.2409 9.74029 26.208 10.5056L26.176 10.5276H26.177Z" fill="white"/>
</svg>
